# xmcd
#
# Track frame offsets:
#	150
#	16437
#	32822
#	50769
#	70595
#	88142
#	104288
#	119974
#	133350
#	150006
#	165053
#	184520
#	201826
#	221003
#	238201
#	254047
#	271994
#	287600
#
# Disc length: 3997 seconds
#
# Revision: 0
# Processed by: cddbd v1.5.1PL0 Copyright (c) Steve Scherf et al.
# Submitted via: EasyCDDAExtractor 7.5.2.1
#
DISCID=0a0f9b12
DTITLE=Smokie - 18 Carat Gold
DYEAR=1900
DGENRE=
TTITLE0=Living Next Door To Alice
TTITLE1=Oh Carol
TTITLE2=If You Think You Know How To Love Me
TTITLE3=Boulevard Of Broken Dreams
TTITLE4=For A Few Dollars More
TTITLE5=My Heart Is True
TTITLE6=Take Good Care Of Me Baby
TTITLE7=Somethings Been Making Me Blue
TTITLE8=Tambaurine Man
TTITLE9=I'll Meet You At Midnight
TTITLE10=Lay Back In The Arms Of Someone
TTITLE11=Think About The Night
TTITLE12=Wild Angels
TTITLE13=Norwegian Girl
TTITLE14=It's Your Life
TTITLE15=Rock Away Your Teardrops
TTITLE16=Don't Play Your Rock'n' Roll To Me
TTITLE17=Needles And Pins
EXTD=
EXTT0=
EXTT1=
EXTT2=
EXTT3=
EXTT4=
EXTT5=
EXTT6=
EXTT7=
EXTT8=
EXTT9=
EXTT10=
EXTT11=
EXTT12=
EXTT13=
EXTT14=
EXTT15=
EXTT16=
EXTT17=
PLAYORDER=
